<svg width="244" height="191" viewBox="0 0 244 191" fill="none" xmlns="http://www.w3.org/2000/svg">
<path d="M25.0285 190.136C25.0285 190.136 -4.02992 160.436 0.474323 105.256C2.9334 75.204 23.8842 47.1214 50.1671 40.7876C63.8015 37.5052 77.7525 30.8068 86.3106 22.5157C97.8634 11.3192 125.972 -4.66722 160.764 1.28969C207.584 9.31327 229.984 39.0978 235.559 60.2631C239.321 74.5475 237.312 88.4186 234.792 98.7034C232.65 107.42 228.06 120.914 234.853 133.764C250.302 162.941 230.69 189.941 230.41 189.941L25.0285 190.136Z" fill="#E97402" fill-opacity="0.08"/>
<path d="M67.7974 28.4605C75.1955 24.6364 79.5291 18.3267 77.4769 14.3674C75.4246 10.4081 67.7637 10.2985 60.3657 14.1227C52.9676 17.9468 48.634 24.2565 50.6862 28.2158C52.7385 32.1751 60.3994 32.2847 67.7974 28.4605Z" fill="#E6DCD3"/>
<path d="M48.0342 14.9623C50.851 13.7712 52.616 11.5827 51.9763 10.0742C51.3367 8.56573 48.5347 8.30844 45.7179 9.49955C42.9011 10.6907 41.1361 12.8791 41.7757 14.3876C42.4153 15.8961 45.2173 16.1534 48.0342 14.9623Z" fill="#E6DCD3"/>
<path d="M243.971 189.358H7.97328V190.538H243.971V189.358Z" fill="black"/>
<path d="M76.7908 84.1267C76.7908 84.1267 82.6584 92.9891 84.9106 94.5573C87.1627 96.1256 110.426 94.0832 110.426 94.0832L109.952 86.8985L90.7661 85.5004L84.4967 77.0635L76.7908 84.1267Z" fill="#FE9F73"/>
<path d="M118.668 93.7786C118.753 93.4139 118.522 93.0613 118.169 92.9641L115.966 92.3197C115.893 92.2954 115.844 92.2346 115.844 92.1617C115.844 92.0523 115.929 91.9672 116.039 91.9915L119.386 92.5021C119.764 92.5629 120.068 92.2954 120.056 91.9064C120.044 91.5174 119.715 91.1527 119.325 91.0919L115.917 90.5691C115.832 90.557 115.783 90.4962 115.771 90.4111V90.3503C115.771 90.2531 115.844 90.1801 115.929 90.1801L119.752 90.0099C120.117 89.9978 120.433 89.706 120.433 89.3413C120.445 88.9401 120.105 88.624 119.715 88.6362L115.868 88.8064C115.771 88.8064 115.698 88.7334 115.698 88.6483L115.686 88.466C115.686 88.3809 115.746 88.3079 115.819 88.2958L119.35 87.6758C119.715 87.615 119.983 87.2868 119.946 86.9221C119.898 86.5209 119.532 86.2413 119.143 86.3142C119.143 86.3142 113.713 86.9707 112.861 86.995L113.92 85.293C114.176 85.0134 114.164 84.5758 113.884 84.3205C113.604 84.0652 113.166 84.0773 112.91 84.3569L109.538 87.2624C109.367 87.4448 109.392 87.9432 109.501 88.3444C109.367 92.417 109.38 93.0492 109.44 94.1433L113.786 93.815C115.04 93.7178 116.306 93.8515 117.512 94.2041L117.816 94.2892C118.181 94.4107 118.583 94.1798 118.668 93.7786Z" fill="#FE9F73"/>
<path d="M75.1595 50.6949C76.9125 53.4302 76.2552 63.3867 76.2552 63.3867L75.2813 63.3624C75.2448 63.0342 75.05 62.0981 75.05 62.0981L74.7213 63.3503L70.9475 63.2287L69.3284 48.0447C69.3284 48.0325 73.4065 47.9596 75.1595 50.6949Z" fill="#49263E"/>
<path d="M73.297 52.3642C73.297 52.3642 76.0361 59.7434 72.0432 61.1536L72.4205 66.4541L66.6624 65.6152L65.3477 48.5469C65.3477 48.5469 67.0398 48.6198 67.052 48.7657C67.0641 48.8994 73.297 52.3642 73.297 52.3642Z" fill="#FE9F73"/>
<path d="M71.8239 57.5514C71.7996 57.5514 71.7752 57.5392 71.7752 57.5149C71.7631 57.4906 71.7874 57.4541 71.8118 57.4541C72.1404 57.3569 72.323 56.9314 72.3717 56.7976C71.8726 56.5788 71.5683 56.2749 71.4344 55.8859C71.2274 55.2537 71.5926 54.6337 71.6048 54.6094C71.617 54.5851 71.6535 54.5729 71.6778 54.5972C71.7022 54.6094 71.7144 54.6459 71.69 54.6702C71.69 54.6702 71.337 55.278 71.5318 55.8616C71.6535 56.2263 71.9578 56.518 72.457 56.7247L72.5056 56.7369L72.4935 56.7855C72.4691 56.7976 72.2865 57.4176 71.8239 57.5514C71.8361 57.5514 71.8361 57.5514 71.8239 57.5514Z" fill="#F07162"/>
<path d="M72.1648 62.7666L72.0431 61.1498C72.0431 61.1498 69.2918 61.1984 67.5267 60.2745C67.5267 60.2623 69.9857 62.2804 72.1648 62.7666Z" fill="#F07162"/>
<path d="M70.3509 55.4012C70.3631 55.5593 70.2414 55.7052 70.0831 55.7173C69.9249 55.7295 69.7788 55.6079 69.7666 55.4499C69.7544 55.2918 69.8762 55.1459 70.0344 55.1338C70.1927 55.1338 70.3388 55.2432 70.3509 55.4012Z" fill="black"/>
<path d="M73.2727 55.2781C73.2849 55.4361 73.1631 55.582 73.0049 55.5941C72.8466 55.6063 72.7005 55.4847 72.6883 55.3267C72.6762 55.1686 72.7979 55.0228 72.9562 55.0106C73.1266 54.9984 73.2605 55.12 73.2727 55.2781Z" fill="black"/>
<path d="M69.5719 57.5889C69.6084 57.5889 71.5197 58.2575 71.5197 58.2575C71.5197 58.2575 70.9841 58.9505 70.278 58.7073C69.5597 58.4642 69.5719 57.5889 69.5719 57.5889Z" fill="#FBFDFC"/>
<path d="M71.1666 49.7097C71.1666 49.7097 70.6797 53.2839 67.4658 54.9129C64.2642 56.5419 66.5163 60.8333 66.5163 60.8333L62.9859 56.3596C62.9859 56.3596 62.5964 50.0136 65.3476 48.5427C67.3441 47.4728 71.3371 47.6917 71.1666 49.7097Z" fill="#49263E"/>
<path d="M69.0847 54.4634C69.1213 54.4756 69.1456 54.4756 69.1821 54.4512C69.1943 54.4512 69.9004 53.9528 70.6552 54.1595C70.716 54.1716 70.7647 54.1352 70.7769 54.0865C70.7891 54.0258 70.7647 53.9771 70.7039 53.965C69.8517 53.734 69.0847 54.2689 69.0604 54.2932C69.0117 54.3297 68.9995 54.3905 69.0361 54.4391C69.0482 54.4391 69.0604 54.4512 69.0847 54.4634Z" fill="#49263E"/>
<path d="M73.5404 54.5138C73.5769 54.5138 73.6012 54.5016 73.6256 54.4773C73.6621 54.4287 73.6499 54.3679 73.6012 54.3314C73.5647 54.3071 72.8343 53.7479 71.97 53.9424C71.9091 53.9545 71.8848 54.0153 71.8969 54.064C71.9091 54.1247 71.97 54.149 72.0187 54.1369C72.7856 53.9667 73.4795 54.4895 73.4795 54.4895C73.5039 54.5138 73.516 54.5138 73.5404 54.5138Z" fill="#49263E"/>
<path d="M71.0205 51.0848L69.5232 49.8691L70.6797 51.328L71.0205 51.0848Z" fill="#FE9F73"/>
<path d="M67.6605 54.1219C67.5875 54.1462 67.5266 54.1097 67.5023 54.0368C67.4779 53.9638 67.5145 53.8909 67.5875 53.8666C69.4379 53.198 69.9127 51.3623 69.9249 51.338C69.9492 51.265 70.0222 51.2164 70.0831 51.2407C70.1561 51.2529 70.2048 51.338 70.1805 51.3987C70.144 51.496 69.6449 53.4046 67.6605 54.1219Z" fill="#21111D"/>
<path d="M61.8172 52.774C62.3407 49.127 66.2606 48.1787 66.2606 48.1787L66.6258 55.2054C66.6258 55.2054 66.1023 58.3176 66.784 62.8278L66.9423 63.6788C66.9423 63.6788 65.5058 63.7031 63.8502 63.4965C63.6798 62.84 63.412 61.758 63.412 61.758L63.0954 63.3871C62.7302 63.3263 62.3528 63.2533 61.9998 63.1682C61.9876 63.1561 61.4033 55.7282 61.8172 52.774Z" fill="#49263E"/>
<path d="M67.2346 56.4083C67.3076 57.2958 66.6381 58.086 65.7372 58.1468C64.8485 58.2197 64.0573 57.5511 63.9964 56.6515C63.9233 55.764 64.5929 54.9738 65.4937 54.913C66.3824 54.8522 67.1615 55.5209 67.2346 56.4083Z" fill="#FE9F73"/>
<path d="M65.5667 57.5407C65.2259 57.5651 64.9824 57.3341 64.885 57.0788C64.7754 56.787 64.8485 56.4831 65.0798 56.3129C65.4085 56.0698 65.7371 56.167 65.9197 56.2643C65.8345 56.0941 65.725 55.9847 65.5789 55.9117C65.2502 55.7658 64.8728 55.9239 64.8606 55.9239C64.8363 55.936 64.7998 55.9239 64.7876 55.8996C64.7754 55.8752 64.7876 55.8388 64.812 55.8266C64.8241 55.8145 65.238 55.6443 65.6154 55.8145C65.8345 55.9117 65.9806 56.1062 66.078 56.3737L66.1389 56.556L65.9928 56.4345C65.9806 56.4223 65.5667 56.0819 65.1406 56.398C64.9093 56.5682 64.9093 56.86 64.9702 57.0423C65.0433 57.2368 65.238 57.4678 65.5545 57.4313C65.5789 57.4313 65.6032 57.4556 65.6154 57.48C65.6276 57.5164 65.6032 57.5407 65.5667 57.5407C65.5789 57.5407 65.5667 57.5407 65.5667 57.5407Z" fill="#F07162"/>
<path d="M69.0971 124.003L70.6066 187.778L78.8603 184.216L86.8584 121.669L69.0971 124.003Z" fill="#FE9F73"/>
<path d="M70.2779 124.003L54.5252 184.812L46.1619 185.456L53.0644 121.669L70.2779 124.003Z" fill="#FE9F73"/>
<path d="M51.4331 109.061C53.0279 104.49 56.7409 97.0259 56.7409 97.0259L59.6138 91.5674C68.318 92.6007 82.4272 91.8348 82.4272 91.8348L83.2794 93.3545L85.1784 97.5121L86.2984 100.478L87.6497 104.916L88.3436 107.882L89.0984 111.505L89.7192 114.617L90.1575 117.243L90.4983 120.173C90.4983 120.173 90.8027 121.935 90.8027 121.984C90.8027 122.033 91.034 124.817 91.034 124.817L91.1679 127.26L91.3992 131.114L91.2774 134.129L91.2653 136.609L91.0461 140.463C70.5823 149.276 43.7638 138.688 43.7638 138.688L45.2124 131.175C45.6263 127.929 49.8262 113.632 51.4331 109.061Z" fill="#E97402"/>
<path d="M56.1808 85.9137C49.741 83.9078 45.188 79.6407 45.188 79.6407L46.2228 78.1819L49.2297 74.1336L52.3705 70.2191L55.2069 67.2528L58.4695 65.6846L60.0277 65.3928C60.1129 65.3685 60.1859 65.3442 60.2712 65.332C60.3564 65.3199 60.4294 65.3077 60.5146 65.3077L62.4868 64.943L62.7424 65.101C64.9215 64.943 67.064 64.8822 67.7458 64.87C68.8292 64.7606 74.283 65.0281 74.283 65.0281L75.0865 64.943C75.9995 65.0524 81.5872 65.563 82.6585 66.6571C82.9506 66.9489 84.448 69.8422 85.994 75.8356L86.7123 79.1666L85.9819 79.6894L85.0323 80.5039L83.4132 81.0996L83.0237 81.6466L82.3906 91.2749V91.8463C82.3906 91.8463 68.2936 92.6 59.5773 91.5789L56.8747 84.3455L56.1808 85.9137Z" fill="#7FC6A6"/>
<path d="M57.1911 68.8481C57.2155 68.8481 57.252 68.8359 57.2764 68.8116C58.2381 67.5351 59.8085 67.0124 59.8207 67.0124C59.8694 67.0002 59.9059 66.9394 59.8815 66.8908C59.8694 66.8422 59.8085 66.8057 59.7598 66.83C59.6989 66.8543 58.1163 67.3771 57.1181 68.7022C57.0816 68.7508 57.0938 68.8116 57.1425 68.8359C57.1425 68.8481 57.1668 68.8481 57.1911 68.8481Z" fill="#21111D"/>
<path d="M57.3739 69.768C57.3983 69.768 57.4348 69.7558 57.4591 69.7315C58.4209 68.455 59.9913 67.9323 60.0034 67.9323C60.0521 67.9201 60.0886 67.8593 60.0643 67.8107C60.0521 67.7621 59.9913 67.7256 59.9426 67.7499C59.8817 67.7742 58.2991 68.297 57.3009 69.6221C57.2644 69.6707 57.2765 69.7315 57.3252 69.7558C57.3374 69.7558 57.3496 69.768 57.3739 69.768Z" fill="#21111D"/>
<path d="M45.1515 131.611C45.1394 131.611 45.1272 131.611 45.115 131.611C45.0176 131.587 44.9568 131.502 44.9689 131.405C49.7167 107.456 58.6643 92.7456 59.4069 91.5664L56.8626 84.7828L56.2782 86.1566L56.12 86.1079C48.9132 83.8346 45.0542 79.8836 45.0176 79.835L44.9202 79.7255L45.0055 79.604C45.3098 79.1663 52.4557 68.9302 55.5356 66.827C58.6399 64.7117 63.6798 64.6631 63.8989 64.6631C63.9963 64.6631 64.0815 64.7482 64.0815 64.8454C64.0815 64.9427 63.9963 65.0278 63.8989 65.0278C63.8502 65.0278 58.7495 65.0764 55.7426 67.1309C52.894 69.0761 46.2228 78.4977 45.395 79.6891C46.0402 80.3212 49.7288 83.6644 56.0835 85.7068L56.8991 83.8224L59.8086 91.6029L59.7599 91.6758C59.6625 91.8217 50.2401 106.678 45.3341 131.466C45.3098 131.551 45.2368 131.611 45.1515 131.611Z" fill="black"/>
<path d="M56.1808 86.0986C56.1564 86.0986 56.1443 86.0986 56.1199 86.0864C56.0225 86.0499 55.986 85.9527 56.0104 85.8554L59.0172 77.9048C59.0538 77.8075 59.1512 77.7711 59.2485 77.7954C59.3459 77.8319 59.3825 77.9291 59.3581 78.0264L56.3512 85.977C56.3269 86.0621 56.2538 86.0986 56.1808 86.0986Z" fill="black"/>
<path d="M62.1825 92.0159C62.1703 92.0159 62.1703 92.0159 62.1581 92.0159L59.5895 91.7484C59.4921 91.7363 59.4191 91.6512 59.4313 91.5539C59.4434 91.4566 59.5286 91.3837 59.626 91.3959L62.1947 91.6633C62.2921 91.6755 62.3651 91.7606 62.3529 91.8578C62.3407 91.9551 62.2677 92.0159 62.1825 92.0159Z" fill="black"/>
<path d="M91.0461 140.631C91.034 140.631 91.034 140.631 91.0461 140.631C90.9366 140.619 90.8635 140.534 90.8635 140.436C91.8861 123.976 89.5001 111.673 87.3088 104.233C84.935 96.1851 82.2933 91.9666 82.2689 91.9301L82.2324 91.8815L83.0115 81.4265L83.0359 81.3901C86.3349 76.3692 82.5124 72.4182 82.3542 72.2602C82.2811 72.1873 82.2811 72.0778 82.3542 72.0049C82.4272 71.932 82.5368 71.932 82.6098 72.0049C82.6463 72.0414 86.7854 76.3085 83.3646 81.5481L82.6098 91.7964C82.9141 92.307 85.4097 96.5133 87.6619 104.124C89.8653 111.588 92.2635 123.952 91.2409 140.461C91.2166 140.558 91.1313 140.631 91.0461 140.631Z" fill="black"/>
<path d="M80.175 81.5522H70.2779C70.1805 81.5522 70.0953 81.4671 70.0953 81.3698C70.0953 81.2726 70.1805 81.1875 70.2779 81.1875H80.175C80.2724 81.1875 80.3576 81.2726 80.3576 81.3698C80.3576 81.4671 80.2724 81.5522 80.175 81.5522Z" fill="black"/>
<path d="M78.7385 83.2758H72.1891C72.0917 83.2758 72.0065 83.1907 72.0065 83.0935C72.0065 82.9962 72.0917 82.9111 72.1891 82.9111H78.7507C78.8481 82.9111 78.9333 82.9962 78.9333 83.0935C78.9211 83.1907 78.8359 83.2758 78.7385 83.2758Z" fill="black"/>
<path d="M53.8435 106.334C53.8435 106.334 54.9878 105.994 55.9982 105.423C57.0208 104.863 57.0573 105.751 56.8747 106.103C56.6921 106.456 55.5721 107.623 55.5721 107.623L53.8435 106.334Z" fill="#F07162"/>
<path d="M53.1009 106.143C53.1131 106.179 53.1374 106.216 53.1496 106.24C54.8052 106.471 56.7286 106.738 57.1912 106.811C58.0555 106.933 60.8433 108.282 61.6224 109.158C63.0346 110.75 62.0241 110.689 62.0241 110.689C63.3389 112.476 61.7076 112.185 61.7076 112.185C63.0345 113.68 61.4398 113.704 61.4398 113.704C62.0607 114.579 61.8537 114.92 61.5615 115.066C61.3546 115.163 61.0989 115.151 60.9042 115.041C60.5268 114.835 59.699 114.385 58.8347 113.899C58.8347 113.899 56.0347 112.987 50.9462 111.954L48.9619 111.346L53.1009 106.143Z" fill="#FE9F73"/>
<path d="M59.7722 112.33C59.7235 112.318 59.687 112.342 59.6626 112.379C59.6383 112.428 59.6505 112.488 59.6992 112.525C60.4052 112.926 61.3669 113.777 61.3791 113.789C61.4278 113.826 61.4887 113.826 61.5252 113.777C61.5617 113.728 61.5617 113.668 61.513 113.631C61.4765 113.595 60.527 112.756 59.7965 112.342C59.7965 112.33 59.7844 112.33 59.7722 112.33Z" fill="#F07162"/>
<path d="M60.0518 111.029C60.0031 111.017 59.9545 111.042 59.9301 111.09C59.9058 111.139 59.9301 111.2 59.991 111.224C60.904 111.601 61.6466 112.257 61.6466 112.269C61.6953 112.306 61.7562 112.306 61.7927 112.257C61.8292 112.209 61.8292 112.148 61.7805 112.111C61.744 112.087 61.0136 111.418 60.0518 111.029C60.064 111.029 60.0518 111.029 60.0518 111.029Z" fill="#F07162"/>
<path d="M60.5879 109.581C60.5392 109.569 60.4905 109.593 60.4662 109.642C60.4418 109.691 60.4662 109.751 60.5149 109.776C61.294 110.128 61.9392 110.748 61.9513 110.76C61.9879 110.797 62.0609 110.797 62.0974 110.76C62.134 110.724 62.134 110.651 62.0974 110.615C62.0731 110.59 61.4157 109.958 60.6001 109.593L60.5879 109.581Z" fill="#F07162"/>
<path d="M39.7586 92.7104C39.7343 91.0327 44.0072 83.6899 45.7237 80.4805C48.3897 82.8024 52.2488 84.6868 53.9896 85.3311C52.2853 88.0421 50.3497 91.5676 49.534 92.8319C48.6941 94.1449 51.9931 104.49 53.1496 106.484L48.9619 111.335C46.0646 108.672 39.8438 98.4971 39.7586 92.7104Z" fill="#FE9F73"/>
<path d="M77.6186 65.1746C77.6186 65.1746 74.6604 67.679 69.6083 67.7276C64.5685 67.7884 61.8294 65.1746 61.8294 65.1746C61.8294 65.1746 71.3126 64.1291 77.6186 65.1746Z" fill="#FE9F73"/>
<path d="M83.4376 81.2585C83.3524 81.2585 83.2793 81.1977 83.255 81.1126C83.2428 81.0154 83.3037 80.9181 83.4011 80.906C85.0688 80.6507 86.2619 79.3134 86.5297 78.9973C86.4566 78.7177 86.3593 78.3165 86.2497 77.8302C85.4828 74.5965 83.6932 67.047 81.7942 66.3784C79.5299 65.576 75.7195 65.1019 75.683 65.1019C75.5856 65.0898 75.5126 65.0047 75.5247 64.9074C75.5369 64.8102 75.6221 64.7372 75.7195 64.7494C75.756 64.7494 79.6029 65.2357 81.9037 66.038C83.9854 66.7674 85.7506 74.1832 86.5906 77.7451C86.7245 78.2922 86.8219 78.7177 86.8949 78.9973L86.9192 79.0824L86.8705 79.1554C86.8097 79.2283 85.4828 80.9546 83.4619 81.2585C83.4498 81.2585 83.4498 81.2585 83.4376 81.2585Z" fill="black"/>
<path d="M54.793 187.801H47.4158L44.4333 184.543L38.9673 187.801H37.7865C37.3848 187.801 37.0074 188.081 36.9343 188.47C36.8369 189.005 37.2387 189.479 37.7621 189.479H54.9026C55.0243 189.479 55.1339 189.381 55.1339 189.248V188.129C55.1217 187.947 54.9756 187.801 54.793 187.801Z" fill="#FEC786"/>
<path d="M54.7322 187.813V184.786C54.7322 184.786 53.4904 183.12 51.6035 183.971C51.6035 183.971 48.7427 186.002 46.2228 183.546L39.9655 186.318C39.9655 186.318 38.2491 186.889 37.7865 187.813H54.7322Z" fill="#49263E"/>
<path d="M54.793 184.785H54.6713V187.788H54.793V184.785Z" fill="black"/>
<path d="M49.0349 184.823C48.7914 184.823 48.6453 184.798 48.6453 184.798L48.6697 184.677C48.6818 184.677 50.167 184.883 51.567 183.923L51.64 184.02C50.6174 184.713 49.5827 184.823 49.0349 184.823Z" fill="black"/>
<path d="M53.9437 186.614L53.1458 187.15L53.2138 187.251L54.0117 186.715L53.9437 186.614Z" fill="black"/>
<path d="M53.3559 186.444L52.5586 186.981L52.6267 187.082L53.424 186.545L53.3559 186.444Z" fill="black"/>
<path d="M37.1656 189.332C36.9586 189.162 36.8491 188.906 36.8491 188.639C36.8491 188.14 37.2508 187.739 37.7499 187.739H54.7078C54.9756 187.739 55.1947 187.958 55.1947 188.226V189.064H55.073V188.226C55.073 188.031 54.9147 187.873 54.72 187.873H37.7499C37.3238 187.873 36.9708 188.226 36.9708 188.651C36.9708 188.882 37.0682 189.101 37.2508 189.247L37.1656 189.332Z" fill="black"/>
<path d="M37.8108 187.836L37.7012 187.787C37.7134 187.763 38.0542 187.058 39.3446 186.511C40.5985 185.976 46.1497 183.52 46.1984 183.496L46.2471 183.606C46.1862 183.63 40.6472 186.086 39.3933 186.62C38.1516 187.143 37.8108 187.824 37.8108 187.836Z" fill="black"/>
<path d="M70.3875 187.801H77.7647L80.7594 184.543L86.2253 187.801H87.4062C87.8079 187.801 88.1853 188.081 88.2583 188.47C88.3557 189.005 87.954 189.479 87.4305 189.479H70.2779C70.1562 189.479 70.0466 189.381 70.0466 189.248V188.129C70.0466 187.947 70.1927 187.801 70.3875 187.801Z" fill="#FEC786"/>
<path d="M70.4484 187.813V184.786C70.4484 184.786 71.6901 183.12 73.577 183.971C73.577 183.971 76.4378 186.002 78.9577 183.546L85.215 186.318C85.215 186.318 86.9315 186.889 87.3941 187.813H70.4484Z" fill="#49263E"/>
<path d="M70.5092 184.785H70.3875V187.788H70.5092V184.785Z" fill="black"/>
<path d="M76.1455 184.823C76.389 184.823 76.535 184.798 76.535 184.798L76.5107 184.677C76.4985 184.677 75.0133 184.883 73.6134 183.923L73.5403 184.02C74.5507 184.713 75.5977 184.823 76.1455 184.823Z" fill="black"/>
<path d="M71.2438 186.6L71.1758 186.701L71.9736 187.237L72.0416 187.137L71.2438 186.6Z" fill="black"/>
<path d="M71.8115 186.455L71.7435 186.556L72.5407 187.093L72.6088 186.992L71.8115 186.455Z" fill="black"/>
<path d="M88.0149 189.332C88.2219 189.162 88.3314 188.906 88.3314 188.639C88.3314 188.14 87.9297 187.739 87.4306 187.739H70.4728C70.2049 187.739 69.9858 187.958 69.9858 188.226V189.064H70.1075V188.226C70.1075 188.031 70.2658 187.873 70.4606 187.873H87.4184C87.8445 187.873 88.1975 188.226 88.1975 188.651C88.1975 188.882 88.1001 189.101 87.9175 189.247L88.0149 189.332Z" fill="black"/>
<path d="M87.3698 187.836L87.4793 187.787C87.4671 187.763 87.1263 187.058 85.8359 186.511C84.582 185.976 79.0308 183.52 78.9821 183.496L78.9334 183.606C78.9943 183.63 84.5333 186.086 85.7872 186.62C87.0289 187.143 87.3698 187.824 87.3698 187.836Z" fill="black"/>
<path d="M183.967 37.5664C183.967 37.5664 186.293 38.7578 185.124 43.4382L184.247 42.9884L184.54 40.5084L183.967 37.5664Z" fill="black"/>
<path d="M175.835 40.4575V47.3141C175.835 47.3141 175.738 49.636 177.759 49.9157L177.382 53.0035C177.248 54.1463 177.929 55.2526 179.025 55.6051C179.561 55.7753 180.206 55.8969 180.924 55.8969C183.225 55.8969 184.479 54.1584 184.674 53.2953C184.868 52.4321 184.284 48.2745 184.284 48.2745L184.357 46.2321L184.089 38.3301L175.835 40.4575Z" fill="#FE9F73"/>
<path d="M181.411 43.8858C181.435 43.8858 181.46 43.8737 181.472 43.8615C181.508 43.825 181.508 43.7643 181.472 43.7278C181.46 43.7156 180.133 42.354 178.928 43.3388C178.891 43.3752 178.879 43.436 178.915 43.4725C178.952 43.509 179.013 43.5211 179.049 43.4846C180.121 42.6215 181.277 43.8129 181.326 43.8615C181.35 43.8737 181.374 43.8858 181.411 43.8858Z" fill="black"/>
<path d="M177.442 43.3021C177.467 43.3021 177.491 43.2899 177.515 43.2656C177.552 43.2291 177.54 43.1683 177.503 43.1319C177.467 43.0954 176.554 42.3052 175.969 42.8158C175.933 42.8523 175.921 42.9131 175.957 42.9495C175.994 42.986 176.055 42.9982 176.091 42.9617C176.541 42.5727 177.369 43.2778 177.369 43.2778C177.406 43.3021 177.43 43.3021 177.442 43.3021Z" fill="black"/>
<path d="M179.463 44.2761C179.463 44.4342 179.597 44.5679 179.755 44.5679C179.914 44.5679 180.047 44.4342 180.047 44.2761C180.047 44.1181 179.914 43.9844 179.755 43.9844C179.597 43.9844 179.463 44.1181 179.463 44.2761Z" fill="black"/>
<path d="M176.395 43.9812C176.395 44.1393 176.529 44.273 176.687 44.273C176.846 44.273 176.98 44.1393 176.98 43.9812C176.98 43.8232 176.846 43.6895 176.687 43.6895C176.529 43.6895 176.395 43.8232 176.395 43.9812Z" fill="black"/>
<path d="M182.823 44.3771C182.823 45.3375 183.602 46.1156 184.552 46.1156C185.501 46.1156 186.28 45.3375 186.28 44.3771C186.28 43.4167 185.501 42.6387 184.552 42.6387C183.602 42.6387 182.823 43.4167 182.823 44.3771Z" fill="#FE9F73"/>
<path d="M184.686 45.4464C185.039 45.4464 185.282 45.179 185.367 44.8993C185.465 44.5833 185.355 44.2672 185.099 44.1091C184.722 43.866 184.369 44.024 184.186 44.1456C184.26 43.9511 184.381 43.8052 184.54 43.7201C184.88 43.5378 185.306 43.6715 185.306 43.6715C185.331 43.6837 185.355 43.6715 185.367 43.635C185.379 43.6107 185.367 43.5864 185.343 43.5742C185.319 43.5621 184.88 43.4284 184.503 43.635C184.284 43.7566 184.138 43.9633 184.065 44.2672L184.028 44.4374L184.15 44.3158C184.162 44.3037 184.576 43.9025 185.063 44.1942C185.331 44.3644 185.355 44.6684 185.294 44.875C185.233 45.0939 185.039 45.3492 184.71 45.3492H184.698C184.673 45.3492 184.649 45.3735 184.649 45.3978C184.625 45.4221 184.649 45.4464 184.686 45.4464C184.673 45.4464 184.673 45.4464 184.686 45.4464Z" fill="#F07162"/>
<path d="M175.507 46.2191C175.507 46.2191 174.874 50.863 177.941 51.0211C182.324 51.2521 182.75 48.7356 183.018 46.681L183.067 42.4261L182.92 41.1982C182.616 41.5508 182.421 41.9884 182.385 42.4626C182.3 43.4837 182.068 46.2312 181.813 46.3528C181.447 46.523 176.188 45.7693 175.507 46.2191Z" fill="black"/>
<path d="M178.453 46.2373C178.477 46.2373 178.489 46.2251 178.501 46.2008C178.514 46.1765 178.501 46.1522 178.465 46.14L177.503 45.8239L177.808 43.5506C177.808 43.5263 177.795 43.502 177.771 43.502C177.747 43.502 177.722 43.5141 177.722 43.5384L177.406 45.8969L178.441 46.2373C178.441 46.2373 178.441 46.2373 178.453 46.2373Z" fill="#F07162"/>
<path d="M179.195 47.1687C179.171 47.1687 177.296 47.1201 177.296 47.1201C177.296 47.1201 177.528 47.8982 178.222 47.9103C178.915 47.9346 179.195 47.1687 179.195 47.1687Z" fill="#FBFDFC"/>
<path d="M177.175 53.0156L177.479 51.265C177.479 51.265 182.653 51.1312 184.71 50.6328L184.99 53.0764C185.002 53.0764 180.401 55.1917 177.175 53.0156Z" fill="#CEE4EF"/>
<path d="M182.933 41.2873L183.797 40.4971L184.698 42.6488C184.698 42.6488 183.59 42.8312 183.566 43.9861C183.541 45.141 184.174 46.9402 182.166 49.5297C180.169 52.1191 182.324 45.6638 182.348 45.4449C182.373 45.214 182.933 41.2873 182.933 41.2873Z" fill="black"/>
<path d="M183.967 37.5663C183.042 36.6545 179.828 36.1196 177.54 37.5055C174.935 38.782 175.75 41.3714 175.835 41.4565L175.872 41.4322C175.86 41.493 175.848 41.5537 175.835 41.6145C175.835 41.6145 175.945 41.4443 176.176 41.2012L177.199 40.411C177.771 40.0827 178.55 39.8031 179.548 39.7424C180.534 39.6816 181.399 39.7302 182.117 39.949C182.3 40.5326 182.458 41.6996 182.239 43.9973C181.898 47.4985 183.432 43.2557 183.992 41.6267C184.114 41.9306 184.199 42.271 184.247 42.66C184.247 42.6479 185.83 39.402 183.967 37.5663Z" fill="black"/>
<path d="M175.835 42.3775C175.835 42.3775 175.762 40.9673 175.835 40.6634C175.908 40.3594 179.037 39.472 180.754 39.703C182.47 39.9339 179.147 41.8304 179.11 41.8304C179.074 41.8304 175.835 42.3775 175.835 42.3775Z" fill="#FE9F73"/>
<path d="M181.788 40.0699L183.456 38.5381L181.886 40.7871L181.788 40.0699Z" fill="#FE9F73"/>
<path d="M181.788 37.0459C181.788 37.0459 181.447 33.727 183.298 34.4443C185.148 35.1615 185.465 36.6933 183.785 37.7145C182.117 38.7235 181.788 37.0459 181.788 37.0459Z" fill="black"/>
<path d="M187.047 186.87L195.398 186.979L195.52 179.114L187.193 178.068L187.047 186.87Z" fill="#FE9F73"/>
<path d="M178.453 188.279H195.508V184.851C195.508 184.851 194.266 183.209 192.379 184.048C192.379 184.048 189.58 186.066 187.06 183.659L180.741 186.37C180.754 186.358 178.453 187.112 178.453 188.279Z" fill="#4C222E"/>
<path d="M195.52 189.476H177.978C177.832 189.476 177.722 189.366 177.722 189.22V188.539C177.722 188.394 177.832 188.284 177.978 188.284H195.52V189.476Z" fill="#3AAAA4"/>
<path d="M168.13 186.87L176.481 186.979L176.602 179.114L168.288 178.068L168.13 186.87Z" fill="#FE9F73"/>
<path d="M159.547 188.279H176.602V184.851C176.602 184.851 175.361 183.209 173.474 184.048C173.474 184.048 170.674 186.066 168.154 183.659L161.836 186.37C161.836 186.358 159.547 187.112 159.547 188.279Z" fill="#4C222E"/>
<path d="M176.602 189.476H159.06C158.914 189.476 158.804 189.366 158.804 189.22V188.539C158.804 188.394 158.914 188.284 159.06 188.284H176.602V189.476Z" fill="#3AAAA4"/>
<path d="M168.422 114.204C168.422 114.155 168.446 114.119 168.495 114.095C168.556 114.07 168.616 114.107 168.629 114.167C168.909 114.97 169.59 116.113 169.59 116.125C169.627 116.173 169.603 116.246 169.554 116.271C169.505 116.307 169.432 116.283 169.408 116.234C169.383 116.186 168.702 115.055 168.422 114.228C168.422 114.216 168.422 114.204 168.422 114.204Z" fill="#F07162"/>
<path d="M167.034 114.222C167.034 114.173 167.071 114.125 167.119 114.113C167.18 114.101 167.241 114.137 167.253 114.198C167.46 115.207 167.984 116.082 167.996 116.094C168.032 116.143 168.008 116.216 167.959 116.24C167.911 116.277 167.838 116.252 167.813 116.204C167.789 116.167 167.253 115.28 167.046 114.234C167.034 114.234 167.034 114.222 167.034 114.222Z" fill="#F07162"/>
<path d="M162.931 105.812L163.065 108.364C163.065 108.364 164.392 109.252 166.839 109.191L166.218 105.824H162.931V105.812Z" fill="#E2F2F1"/>
<path d="M182.896 98.0608C182.896 98.0608 181.788 150.263 177.978 180.388C177.978 180.388 172.889 181.98 166.51 179.002L166.243 102.073L165.317 90.5479L182.896 98.0608Z" fill="#CE5021"/>
<path d="M196.311 98.5609C196.311 98.5609 198.551 150.021 196.044 180.341C196.044 180.341 191.296 183.331 184.783 180.742L176.907 106.815L173.559 87.0361L196.311 98.5609Z" fill="#DA683D"/>
<path d="M189.592 181.908C193.183 181.908 196.08 180.522 196.117 180.498L196.202 180.461L196.214 180.376C198.357 168.815 196.993 111.811 196.969 111.24C196.969 111.142 196.884 111.069 196.799 111.069C196.701 111.069 196.628 111.154 196.628 111.252C196.64 111.823 198.004 168.487 195.885 180.218C195.167 180.546 189.799 182.82 184.856 180.583C184.771 180.546 184.661 180.583 184.625 180.668C184.588 180.753 184.625 180.862 184.71 180.899C186.354 181.64 188.046 181.908 189.592 181.908Z" fill="black"/>
<path d="M174.314 180.943C175.47 180.943 176.712 180.834 178.014 180.542C178.112 180.518 178.173 180.433 178.148 180.336C178.124 180.238 178.027 180.178 177.941 180.202C172.11 181.478 167.387 179.241 166.681 178.877L166.413 109.181C166.413 109.084 166.34 109.011 166.243 109.011C166.145 109.011 166.072 109.096 166.072 109.193L166.34 179.096L166.425 179.144C166.449 179.168 169.724 180.943 174.314 180.943Z" fill="black"/>
<path d="M168.592 53.8193C168.592 53.8193 164.417 55.5213 163.723 58.8158C163.029 62.1104 161.215 101.9 162.469 105.815H168.58V53.8193H168.592Z" fill="#4C222E"/>
<path d="M198.466 76.7571L198.795 102.238C198.795 102.238 179.025 107.867 166.23 101.156C166.23 101.156 168.47 56.3699 168.872 54.4004C169.347 52.0785 182.105 51.884 187.425 52.4553C187.425 52.4553 195.678 52.2487 200.085 54.6801L198.466 76.7571Z" fill="#E2F2F1"/>
<path d="M198.795 69.9522L198.381 109.012C198.381 109.012 188.265 110.824 183.164 108.781C183.164 108.781 183.2 53.9172 185.282 52.1787C185.538 52.1909 190.785 52.2881 194.534 52.7501C198.271 53.2242 198.795 69.9522 198.795 69.9522Z" fill="#4C222E"/>
<path d="M176.809 52.1787C176.809 52.1787 175.823 101.414 174.776 109.012C174.776 109.012 168.543 109.693 165.037 109.195C165.037 109.195 166.011 55.9109 167.411 54.4885C168.811 53.0662 176.809 52.1787 176.809 52.1787Z" fill="#4C222E"/>
<path d="M184.6 52.255C184.6 52.255 177.99 52.097 176.87 52.3037C176.87 52.3037 177.747 54.9053 177.881 55.0147C178.027 55.1241 182.312 55.9872 182.312 55.9872C182.312 55.9872 183.773 55.1241 183.834 54.8323C183.907 54.5405 184.6 52.255 184.6 52.255Z" fill="#E2F2F1"/>
<path d="M198.795 82.6455C198.892 82.6455 198.965 82.5726 198.965 82.4753V74.1721C198.965 74.0749 198.892 74.002 198.795 74.002C198.698 74.002 198.625 74.0749 198.625 74.1721V82.4753C198.612 82.5726 198.698 82.6455 198.795 82.6455Z" fill="black"/>
<path d="M183.152 109.696C183.249 109.696 183.322 109.623 183.322 109.526C183.237 74.2583 184.223 62.0041 184.235 61.8825C184.247 61.7853 184.174 61.7002 184.077 61.7002C183.98 61.7002 183.894 61.761 183.882 61.8582C183.87 61.9798 182.872 74.2462 182.969 109.538C182.981 109.623 183.054 109.696 183.152 109.696Z" fill="black"/>
<path d="M165.037 109.367C165.05 109.367 165.05 109.367 165.037 109.367C165.135 109.367 165.22 109.282 165.208 109.184C164.867 93.3075 167.655 58.9884 167.691 58.648C167.703 58.5507 167.63 58.4656 167.533 58.4535C167.436 58.4413 167.35 58.5143 167.338 58.6115C167.314 58.9519 164.514 93.2953 164.855 109.184C164.867 109.294 164.952 109.367 165.037 109.367Z" fill="black"/>
<path d="M176.578 62.4277C176.675 62.4277 176.748 62.3548 176.748 62.2575L176.98 51.9971L176.785 52.0092C176.432 52.0335 167.983 52.7265 165.488 55.6198C165.427 55.6928 165.427 55.8022 165.512 55.863C165.585 55.9238 165.695 55.9238 165.756 55.8387C167.947 53.2857 175.324 52.4833 176.615 52.3618L176.395 62.2332C176.408 62.3426 176.481 62.4156 176.578 62.4277Z" fill="black"/>
<path d="M212.247 88.8944C211.175 83.4481 213.525 80.0077 215.29 78.1963C215.899 79.9347 216.337 81.6975 216.52 83.4481C216.763 85.7944 215.497 88.9066 213.561 92.1525C212.977 91.338 212.527 90.2803 212.247 88.8944Z" fill="#FEC786"/>
<path d="M198.247 56.9898C198.211 56.9898 198.174 56.9776 198.15 56.9412C196.993 55.4094 195.106 54.7772 195.094 54.7772C195.033 54.7529 194.997 54.6921 195.021 54.6313C195.045 54.5706 195.106 54.5341 195.167 54.5584C195.252 54.5827 197.139 55.2149 198.345 56.8074C198.381 56.8561 198.369 56.929 198.32 56.9776C198.296 56.9898 198.271 56.9898 198.247 56.9898Z" fill="#21111D"/>
<path d="M198.028 58.104C197.991 58.104 197.955 58.0919 197.931 58.0554C196.774 56.5236 194.887 55.8915 194.875 55.8915C194.814 55.8672 194.778 55.8064 194.802 55.7456C194.826 55.6848 194.887 55.6483 194.948 55.6727C195.033 55.697 196.92 56.3291 198.125 57.9217C198.162 57.9703 198.15 58.0432 198.101 58.0919C198.077 58.104 198.052 58.104 198.028 58.104Z" fill="#21111D"/>
<path d="M193.171 181.483C193.268 181.483 193.341 181.41 193.341 181.313L193.645 160.671C193.645 160.573 193.572 160.488 193.475 160.488C193.378 160.488 193.305 160.561 193.305 160.658L193 181.301C192.988 181.398 193.073 181.483 193.171 181.483Z" fill="black"/>
<path d="M174.095 180.945C174.192 180.945 174.265 180.872 174.265 180.774L175.422 160.667C175.422 160.57 175.348 160.485 175.251 160.485C175.154 160.472 175.069 160.558 175.069 160.655L173.912 180.762C173.924 180.86 173.997 180.945 174.095 180.945Z" fill="black"/>
<path d="M188.082 112.065L120.835 116.842C117.828 117.061 115.235 114.788 115.028 111.797L112.557 74.767C112.362 71.7885 114.602 69.2113 117.597 68.9924L184.844 64.2148C187.851 63.9959 190.444 66.2693 190.651 69.2599L193.134 106.278C193.317 109.268 191.077 111.846 188.082 112.065Z" fill="#9249B3"/>
<path d="M180.343 105.559C184.533 105.247 187.79 103.121 187.618 100.811C187.445 98.5015 183.908 96.8821 179.718 97.1944C175.528 97.5066 172.271 99.6323 172.443 101.942C172.616 104.252 176.153 105.871 180.343 105.559Z" fill="#853BA7"/>
<path d="M126.8 81.0547C126.045 81.1155 125.376 80.5441 125.327 79.7782C125.266 79.0244 125.838 78.3558 126.605 78.3072C127.36 78.2464 128.03 78.8178 128.078 79.5837C128.127 80.3374 127.555 80.9939 126.8 81.0547Z" fill="white"/>
<path d="M125.668 82.269C125.68 82.3906 125.656 82.5243 125.583 82.6459C125.4 82.9741 124.986 83.0957 124.657 82.9133C123.562 82.3177 122.844 81.2114 122.758 79.9714C122.673 78.8043 123.148 77.6615 124.049 76.9078C124.329 76.6647 124.767 76.7011 124.998 76.9807C125.242 77.2604 125.205 77.698 124.925 77.929C124.365 78.4031 124.061 79.1325 124.11 79.8619C124.171 80.6522 124.621 81.3451 125.315 81.722C125.534 81.8435 125.656 82.0502 125.668 82.269Z" fill="white"/>
<path d="M124.438 84.3722C124.451 84.4937 124.426 84.6275 124.353 84.749C124.171 85.0773 123.757 85.1988 123.428 85.0165C121.602 84.0196 120.409 82.1839 120.263 80.1172C120.117 78.1843 120.92 76.2635 122.405 75.0113C122.685 74.7682 123.124 74.8046 123.355 75.0843C123.598 75.3639 123.562 75.8015 123.282 76.0325C122.125 77.0172 121.505 78.5004 121.614 80.0078C121.736 81.6247 122.661 83.0471 124.085 83.8251C124.292 83.9467 124.426 84.1533 124.438 84.3722Z" fill="white"/>
<path d="M182.58 93.1981L123.818 97.5746C121.943 97.7204 120.287 96.2981 120.153 94.4259C120.007 92.5538 121.431 90.9004 123.306 90.7667L182.068 86.3902C183.943 86.2443 185.599 87.6667 185.733 89.5388C185.879 91.411 184.454 93.0643 182.58 93.1981Z" fill="#853BA7"/>
<path d="M154.69 101.926L123.111 104.285C121.894 104.37 120.811 103.458 120.725 102.23C120.64 101.014 121.553 99.9324 122.783 99.8473L154.361 97.4889C155.579 97.4038 156.662 98.3156 156.747 99.5434C156.845 100.759 155.919 101.829 154.69 101.926Z" fill="#853BA7"/>
<path d="M137.927 109.476L123.586 110.546C122.369 110.631 121.285 109.719 121.2 108.491C121.115 107.276 122.028 106.194 123.258 106.109L137.598 105.039C138.815 104.954 139.899 105.865 139.984 107.093C140.082 108.321 139.156 109.391 137.927 109.476Z" fill="#853BA7"/>
<path d="M162.213 107.677L147.873 108.747C146.655 108.832 145.572 107.92 145.487 106.692C145.401 105.477 146.314 104.395 147.544 104.31L161.884 103.24C163.102 103.155 164.185 104.067 164.271 105.294C164.356 106.51 163.431 107.58 162.213 107.677Z" fill="#853BA7"/>
<path d="M120.08 117.038C117.365 117.038 115.089 114.91 114.919 112.211L112.435 75.3758C112.435 75.2907 112.496 75.2178 112.581 75.2178C112.666 75.2178 112.74 75.2786 112.74 75.3637L115.162 111.324C115.406 114.631 117.536 116.685 120.713 116.685C120.908 116.685 121.103 116.673 121.298 116.661L162.724 113.719C162.81 113.719 162.883 113.78 162.883 113.865C162.883 113.95 162.822 114.023 162.749 114.023L120.445 117.026C120.324 117.038 120.202 117.038 120.08 117.038Z" fill="#9249B3"/>
<path d="M192.599 98.7189C192.513 98.7189 192.452 98.6581 192.44 98.573L190.48 69.287C190.298 66.5273 187.985 64.3634 185.221 64.3634C185.1 64.3634 184.966 64.3634 184.844 64.3755L140.715 67.512C140.617 67.512 140.544 67.4634 140.532 67.4026C140.52 67.3418 140.544 67.2932 140.556 67.2689C140.581 67.2324 140.617 67.2081 140.666 67.2081H140.69H140.702L185.173 64.0473C185.294 64.0352 185.428 64.0352 185.55 64.0352C188.301 64.0352 190.59 66.1869 190.773 68.9223L192.757 98.5609C192.769 98.6338 192.696 98.7068 192.599 98.7189Z" fill="#9249B3"/>
<path d="M188.727 113.405C186.67 113.685 187.571 112.299 187.571 112.299C186.451 112.336 186.28 111.947 186.329 111.618C186.366 111.375 186.524 111.181 186.743 111.059C187.425 110.707 189.507 109.612 190.846 109.017C191.418 108.263 190.018 107.436 189.117 107.217C188.654 107.108 188.119 106.658 189.324 106.342C190.31 106.087 192.562 106.366 192.562 106.366L195.654 102.051L200.633 107.424C200.633 107.424 196.604 111.922 195.995 112.603C195.399 113.284 192.611 114.901 191.393 115.071C189.202 115.375 189.835 114.536 189.835 114.536C187.534 114.645 188.727 113.405 188.727 113.405Z" fill="#FE9F73"/>
<path d="M189.738 111.652C189.774 111.616 189.787 111.567 189.762 111.531C189.738 111.482 189.665 111.458 189.616 111.482C188.861 111.859 187.559 112.199 187.547 112.199C187.486 112.212 187.449 112.272 187.474 112.333C187.486 112.394 187.547 112.43 187.607 112.406C187.656 112.394 188.934 112.054 189.713 111.677C189.713 111.665 189.726 111.652 189.738 111.652Z" fill="#F07162"/>
<path d="M190.699 112.641C190.736 112.605 190.748 112.544 190.712 112.507C190.675 112.459 190.614 112.447 190.565 112.483C189.713 113.055 188.715 113.31 188.703 113.31C188.642 113.322 188.606 113.383 188.618 113.444C188.63 113.504 188.691 113.541 188.752 113.529C188.788 113.516 189.799 113.261 190.675 112.665C190.699 112.653 190.699 112.641 190.699 112.641Z" fill="#F07162"/>
<path d="M191.637 113.938C191.673 113.902 191.686 113.841 191.649 113.804C191.613 113.756 191.552 113.744 191.503 113.768C190.748 114.242 189.835 114.437 189.823 114.437C189.762 114.449 189.726 114.51 189.738 114.57C189.75 114.631 189.811 114.668 189.872 114.655C189.908 114.643 190.833 114.449 191.625 113.95L191.637 113.938Z" fill="#F07162"/>
<path d="M191.296 52.5672C191.296 52.5672 199.89 51.7892 204.176 58.8767C208.096 65.3563 215.57 74.474 216.507 83.4459C217.262 90.6914 203.64 105.146 200.085 108.599L193.779 101.888C193.779 101.888 203.81 85.9988 204.589 84.0416C205.296 82.2545 190.626 62.9371 190.626 62.9371L191.296 52.5672Z" fill="#4C222E"/>
<path d="M199.939 108.443L198.588 109.95C198.588 109.95 193.536 105.61 193.171 105.027C193.256 104.942 194.692 102.851 194.692 102.851L199.939 108.443Z" fill="#E2F2F1"/>
<path d="M212.247 71.7754C212.283 71.7754 212.308 71.7633 212.344 71.7511C212.429 71.7025 212.454 71.5931 212.393 71.508L202.934 56.8953C198.101 51.7286 192.172 52.4094 192.112 52.4215C192.014 52.4337 191.941 52.5188 191.953 52.6161C191.965 52.7133 192.051 52.7741 192.148 52.7741C192.209 52.7619 197.943 52.1055 202.654 57.1263L212.089 71.7025C212.137 71.7511 212.198 71.7754 212.247 71.7754Z" fill="black"/>
<path d="M208.022 85.3176C208.12 85.3176 208.193 85.2446 208.193 85.1474C208.193 85.0501 208.12 84.9772 208.022 84.9772C206.951 84.9772 205.113 83.9195 204.748 83.7007C204.163 81.3179 195.91 69.708 195.557 69.2096C195.496 69.1367 195.386 69.1123 195.313 69.1731C195.228 69.2339 195.216 69.3433 195.277 69.4163C195.362 69.5378 204.042 81.7434 204.431 83.8466L204.443 83.9195L204.504 83.956C204.59 84.0168 206.732 85.3176 208.022 85.3176Z" fill="black"/>
<path d="M200.085 108.784C200.122 108.784 200.171 108.771 200.207 108.735C200.28 108.674 200.292 108.565 200.219 108.492C198.783 106.851 194.692 102.584 194.011 101.878C197.517 96.5051 204.772 84.1658 204.772 83.8132C204.772 83.716 204.699 83.643 204.602 83.6309C204.517 83.6309 204.443 83.6916 204.431 83.7767C204.224 84.3238 197.419 96.031 193.645 101.806L193.572 101.927L193.67 102.024C193.719 102.073 198.405 106.948 199.964 108.723C199.988 108.759 200.037 108.784 200.085 108.784Z" fill="black"/>
<path d="M112.496 88.1397C112.496 88.1397 114.505 84.7722 114.505 84.3346C114.505 83.8726 114.042 83.3863 113.64 83.6903C113.239 83.982 112.642 84.5777 112.033 85.1005C111.108 86.535 112.496 88.1397 112.496 88.1397Z" fill="#FE9F73"/>
</svg>
